<?xml version="1.0" standalone="no"?>
<!DOCTYPE svg PUBLIC "-//W3C//DTD SVG 20010904//EN"
 "http://www.w3.org/TR/2001/REC-SVG-20010904/DTD/svg10.dtd">
<svg version="1.0" xmlns="http://www.w3.org/2000/svg"
 width="500.000000pt" height="500.000000pt" viewBox="0 0 500.000000 500.000000"
 preserveAspectRatio="xMidYMid meet">

<g transform="translate(0.000000,500.000000) scale(0.100000,-0.100000)"
fill="#000000" stroke="none">
<path d="M690 4145 c-217 -53 -391 -221 -456 -440 -17 -56 -18 -135 -21 -1068
-4 -1125 1 -1284 41 -1392 57 -150 156 -262 295 -334 150 -77 5 -72 1981 -69
l1765 3 58 22 c169 65 296 171 360 303 76 155 71 73 71 1330 -1 1255 3 1180
-71 1330 -52 103 -151 201 -259 258 -150 77 -5 72 -1959 71 -1427 -1 -1760 -3
-1805 -14z m133 -402 c-7 -2 -19 -2 -25 0 -7 3 -2 5 12 5 14 0 19 -2 13 -5z
m172 -43 c-27 -27 -45 -50 -40 -50 4 0 -2 -11 -15 -25 -13 -14 -26 -23 -29
-20 -2 3 -24 -13 -47 -36 l-43 -42 40 -29 c48 -35 25 -49 201 124 65 65 121
118 123 118 3 0 12 3 20 7 39 14 21 -13 -61 -93 -49 -48 -89 -94 -89 -102 0
-8 -8 -16 -17 -18 -10 -1 -39 -24 -65 -50 -27 -26 -40 -45 -31 -41 11 4 17 2
15 -6 -1 -7 6 -11 15 -11 10 1 16 -2 13 -6 -5 -9 137 -110 154 -110 6 0 11 -4
11 -10 0 -5 6 -10 14 -10 8 0 16 -4 18 -8 4 -10 121 -92 132 -92 5 0 42 33 82
74 41 41 74 72 74 71 0 -2 16 13 35 32 20 20 33 38 30 41 -10 11 37 51 53 45
12 -5 14 -2 9 11 -4 9 -3 15 2 12 4 -3 30 17 57 45 185 190 227 229 251 229
12 0 1 -16 -32 -50 -27 -27 -45 -50 -40 -50 5 0 -8 -18 -30 -40 -21 -21 -41
-37 -45 -35 -8 5 -342 -329 -336 -336 3 -3 -13 -23 -37 -45 l-42 -39 40 45 40
45 -42 -39 c-24 -22 -41 -41 -40 -42 2 -2 20 -16 41 -31 l39 -28 323 322 c286
287 354 347 354 314 0 -10 -370 -386 -380 -386 -8 0 -80 -73 -80 -81 0 -3 -40
-46 -90 -94 -81 -79 -110 -113 -78 -94 6 4 8 3 5 -3 -4 -6 37 -41 91 -79 53
-37 108 -79 122 -93 16 -15 6 -11 -25 11 -27 20 -129 91 -225 158 -96 67 -177
126 -178 131 -2 5 -8 7 -13 3 -5 -3 -12 2 -15 10 -3 9 -11 16 -16 16 -5 0 -84
53 -174 118 -91 64 -188 132 -217 151 -29 19 -53 38 -55 43 -2 4 -10 8 -18 8
-8 0 -14 4 -14 9 0 5 -8 12 -19 16 -10 3 -31 17 -46 30 l-26 25 21 28 c21 27
86 72 104 72 6 0 -11 -13 -36 -29 -49 -31 -77 -69 -60 -80 5 -3 34 -23 65 -45
53 -37 56 -38 78 -22 13 9 21 16 18 16 -8 0 83 92 135 138 61 53 77 39 21 -18z
m1755 -5 c-30 -30 -50 -55 -45 -55 5 0 -15 -25 -45 -55 -29 -30 -56 -52 -60
-50 -3 2 -76 -66 -161 -151 -84 -84 -149 -154 -144 -154 5 0 -15 -25 -45 -55
-29 -30 -56 -52 -60 -50 -3 2 -79 -69 -168 -158 l-163 -163 33 -24 c17 -13 37
-23 44 -23 7 0 11 -4 8 -9 -3 -5 69 66 160 158 96 96 163 171 159 178 -3 6 -3
8 2 4 13 -12 47 12 41 28 -3 8 -2 13 3 10 12 -8 406 385 406 404 1 8 6 14 12
13 7 -2 59 45 117 102 90 90 136 124 136 99 0 -4 -25 -31 -55 -59 -30 -29 -55
-56 -55 -60 0 -4 -61 -67 -135 -140 -74 -73 -135 -131 -135 -128 0 2 -31 -27
-70 -66 -38 -39 -70 -73 -70 -76 0 -3 -61 -66 -135 -139 -74 -74 -135 -132
-135 -130 0 3 -31 -26 -70 -65 -38 -39 -70 -75 -70 -79 0 -4 -12 -16 -26 -27
-53 -40 -51 -49 31 -111 41 -31 75 -59 75 -61 0 -3 -10 2 -22 11 -13 9 -48 33
-78 54 -30 20 -57 40 -60 43 -3 3 -38 27 -77 53 -70 46 -101 74 -72 64 15 -5
66 41 202 181 145 148 327 330 327 327 0 -2 42 38 93 88 50 50 91 93 90 95 -1
2 48 54 110 115 74 74 120 112 137 114 22 2 18 -4 -30 -53z m870 -10 c-35 -36
-60 -65 -55 -65 5 0 -11 -20 -35 -45 -24 -24 -46 -42 -50 -40 -3 2 -82 -72
-176 -166 -93 -93 -165 -169 -159 -169 5 0 -11 -20 -35 -45 -24 -24 -46 -42
-50 -40 -3 2 -82 -72 -176 -166 -93 -93 -165 -169 -159 -169 5 0 -11 -20 -35
-45 -24 -24 -46 -42 -49 -39 -5 5 -261 -246 -261 -256 0 -3 19 -16 43 -29 l43
-23 127 127 c70 69 125 130 122 135 -6 10 23 35 44 35 9 0 15 8 15 17 -1 10 2
16 6 13 5 -3 80 67 168 155 88 88 165 160 172 160 7 0 10 8 7 20 -5 21 16 45
42 45 9 0 15 8 15 17 -1 10 2 16 6 13 10 -6 352 334 345 345 -6 10 24 35 44
35 9 0 16 9 16 20 1 11 6 19 12 18 7 -2 59 45 116 102 90 90 137 124 137 98 0
-3 -28 -33 -62 -65 -34 -32 -57 -58 -52 -58 5 0 -6 -10 -23 -21 -18 -12 -33
-25 -33 -30 0 -13 -146 -159 -159 -159 -5 0 -18 -14 -29 -31 -10 -17 -22 -30
-26 -30 -3 1 -38 -31 -77 -69 -39 -39 -67 -70 -62 -70 4 0 -7 -10 -24 -21 -18
-12 -33 -25 -33 -30 0 -11 -157 -169 -168 -169 -5 0 -15 -11 -22 -25 -7 -13
-16 -23 -19 -22 -7 2 -201 -189 -201 -198 0 -3 -47 -52 -105 -109 -58 -57
-105 -102 -105 -99 0 3 -39 -35 -86 -83 -48 -48 -82 -90 -76 -92 9 -3 67 36
119 78 7 6 17 10 23 10 5 0 10 5 10 10 0 6 7 10 15 10 8 0 15 4 15 10 0 5 4 9
8 7 8 -2 71 42 337 234 185 133 228 162 223 149 -2 -8 -40 -38 -84 -68 -43
-29 -87 -60 -96 -67 -9 -8 -29 -22 -45 -31 -15 -10 -112 -78 -215 -151 -103
-73 -189 -133 -192 -133 -3 0 -17 -10 -31 -22 -46 -40 -86 -58 -107 -47 -10 5
-18 14 -18 20 0 6 -5 7 -10 4 -6 -3 -13 1 -16 9 -3 9 -12 16 -20 16 -8 0 -14
5 -14 10 0 6 -6 10 -14 10 -7 0 -19 7 -26 15 -11 13 2 30 82 110 52 52 93 95
91 95 -5 0 169 173 324 322 50 48 89 89 88 90 -2 2 62 67 141 146 79 78 144
141 144 138 0 -2 28 24 63 58 34 33 61 63 60 65 -1 2 62 67 140 145 98 98 150
143 167 144 21 2 16 -6 -40 -63z m583 58 c-7 -2 -19 -2 -25 0 -7 3 -2 5 12 5
14 0 19 -2 13 -5z m69 -26 c20 -12 46 -35 58 -50 25 -32 20 -43 -35 -73 -19
-10 -35 -22 -35 -26 0 -5 -6 -8 -14 -8 -8 0 -16 -4 -18 -8 -1 -5 -20 -20 -40
-33 -20 -13 -119 -82 -220 -154 -101 -71 -185 -130 -187 -130 -3 0 -14 -8 -25
-17 -12 -10 -100 -72 -196 -139 -96 -67 -197 -137 -225 -157 -31 -22 -41 -26
-25 -11 14 14 69 56 122 93 54 38 95 72 93 76 -3 4 3 7 13 6 9 0 16 5 14 12
-1 8 2 11 8 7 14 -9 42 14 33 28 -3 6 -1 7 6 3 11 -7 211 127 219 146 2 4 10
8 18 8 8 0 14 5 14 10 0 6 5 10 11 10 17 0 159 101 154 110 -3 4 3 7 13 6 9 0
16 5 14 12 -1 8 2 11 8 7 14 -9 42 14 33 28 -3 6 -1 7 6 3 7 -5 53 24 114 69
56 42 108 80 116 84 21 13 -3 48 -57 82 -25 16 -42 29 -36 29 5 0 26 -10 46
-23z m-3542 -648 c50 -34 90 -66 90 -71 0 -5 -35 15 -77 45 -43 29 -83 57 -90
61 -9 5 -12 -64 -13 -294 0 -165 1 -300 4 -300 10 0 75 73 71 80 -6 9 40 52
48 44 3 -3 21 10 40 30 20 20 34 36 32 36 -2 0 35 38 81 83 l84 84 -85 57
c-47 31 -85 61 -85 66 0 5 57 -31 128 -81 70 -50 155 -110 189 -133 35 -22 63
-45 63 -49 0 -5 -13 1 -30 13 -16 12 -35 18 -41 14 -8 -5 -9 -3 -4 7 5 8 -46
-41 -112 -108 -67 -68 -124 -123 -127 -123 -8 0 -76 -67 -76 -75 0 -3 -40 -46
-90 -94 l-90 -89 0 -316 c0 -173 3 -316 8 -318 4 -2 48 38 98 89 50 51 90 93
88 93 -3 0 200 203 324 323 50 48 88 87 86 87 -2 0 60 63 137 140 78 77 137
141 133 141 -5 1 -12 1 -16 0 -5 0 -8 4 -8 9 0 6 -7 10 -15 10 -8 0 -15 5 -15
10 0 6 -4 10 -10 10 -19 0 -234 159 -226 168 5 4 79 -48 84 -60 2 -5 8 -8 13
-8 11 0 279 -189 279 -197 0 -2 -13 5 -28 16 l-29 20 -48 -49 c-27 -28 -45
-50 -40 -50 5 0 -15 -25 -45 -55 -29 -30 -56 -52 -60 -50 -3 2 -76 -66 -161
-151 -84 -84 -149 -154 -144 -154 5 0 -15 -25 -45 -55 -29 -30 -56 -52 -59
-49 -9 9 -301 -290 -301 -309 0 -17 2 -17 28 2 15 11 44 36 65 55 20 19 37 31
37 26 0 -9 -132 -131 -137 -126 -2 1 -3 176 -3 387 0 211 0 572 0 802 0 229 2
417 5 417 3 0 46 -28 95 -61z m3640 -146 c1 -1023 0 -1396 -3 -1399 -1 -2 -86
71 -188 163 -101 91 -220 198 -264 237 -44 39 -100 90 -125 113 -25 23 -132
119 -237 213 -106 95 -193 174 -193 176 0 7 309 224 319 224 6 0 11 5 11 10 0
6 7 10 15 10 8 0 15 4 15 8 0 4 14 16 32 26 17 11 39 25 47 32 41 34 357 252
365 252 5 0 12 5 15 11 8 12 173 130 184 131 4 0 7 -93 7 -207z m-2636 -39 c3
-8 2 -12 -4 -9 -6 3 -10 10 -10 16 0 14 7 11 14 -7z m1537 -7 c-10 -9 -11 -8
-5 6 3 10 9 15 12 12 3 -3 0 -11 -7 -18z m-1471 -39 c0 -13 -43 15 -48 31 -3
9 5 7 22 -4 14 -10 26 -22 26 -27z m500 -341 c0 4 5 0 11 -9 5 -10 17 -18 24
-18 8 0 15 -4 15 -10 0 -5 -3 -10 -6 -10 -9 0 -204 140 -204 146 0 3 36 -20
80 -51 44 -31 80 -53 80 -48z m-671 -61 c9 -11 -26 -47 -175 -181 -102 -92
-187 -165 -190 -162 -2 2 77 77 176 167 115 103 179 167 176 176 -7 18 -2 18
13 0z m406 -280 l30 -25 -90 -90 c-49 -50 -85 -91 -80 -91 5 0 -11 -20 -35
-45 -24 -24 -46 -42 -50 -40 -3 2 -82 -72 -176 -166 -93 -93 -165 -169 -159
-169 5 0 -8 -18 -30 -40 -21 -21 -41 -37 -45 -35 -3 2 -53 -43 -111 -101 -62
-62 -112 -104 -124 -104 -15 0 -9 11 32 50 28 28 50 50 47 50 -2 0 60 65 138
144 79 79 144 143 146 141 1 -1 42 38 90 88 129 134 323 328 357 357 17 15 39
37 50 50 11 14 16 22 11 18 -5 -4 -15 -3 -22 3 -16 13 -45 -1 -72 -36 -11 -14
-23 -25 -27 -25 -13 0 -164 -142 -162 -152 1 -6 -6 -12 -17 -13 -10 -2 -62
-46 -116 -97 -110 -104 -181 -168 -188 -168 -5 0 -126 -111 -277 -254 -49 -47
-93 -86 -97 -86 -17 0 -6 19 25 43 17 13 48 40 67 58 20 19 50 46 67 61 17 15
107 95 200 179 92 83 202 182 243 219 41 37 133 119 204 183 71 65 132 117
135 117 3 0 20 -11 36 -24z m1146 -133 c96 -86 185 -166 198 -177 14 -12 45
-40 70 -62 54 -49 245 -220 350 -313 41 -36 97 -87 125 -112 28 -26 67 -60 86
-77 l35 -31 -40 0 c-35 0 -38 1 -23 13 16 12 14 16 -23 45 l-40 33 -54 -46
c-79 -68 -103 -60 -31 11 l57 56 -48 49 c-62 62 -280 258 -287 258 -12 0 -109
-101 -103 -107 12 -11 -13 -31 -33 -26 -12 3 -20 0 -20 -6 0 -7 -27 -39 -60
-71 -33 -32 -60 -62 -60 -65 0 -10 -23 -30 -42 -38 -10 -3 -18 -11 -18 -17 0
-14 -25 -40 -38 -40 -5 0 -17 -11 -26 -25 -11 -16 -26 -25 -43 -25 -25 0 -23
3 27 51 29 27 50 53 46 56 -9 10 24 42 38 37 6 -2 22 9 34 26 13 16 29 30 37
30 8 0 15 6 15 14 0 8 11 23 25 34 14 11 25 24 25 28 0 5 13 18 28 28 16 11
37 32 48 48 10 15 22 28 26 28 3 0 21 14 39 32 l32 32 -38 33 -38 33 -46 -43
c-25 -23 -138 -135 -249 -249 -187 -190 -233 -230 -249 -214 -3 3 111 123 254
266 l260 260 -78 77 c-44 42 -82 73 -86 70 -8 -9 -34 13 -28 23 3 4 -29 38
-69 74 l-75 67 -110 -110 c-61 -61 -111 -113 -111 -116 0 -6 -150 -155 -156
-155 -8 0 -254 -250 -254 -258 0 -5 -11 -15 -25 -22 -14 -7 -25 -17 -25 -22 0
-11 -98 -108 -109 -108 -5 0 -16 -11 -25 -25 -11 -16 -26 -25 -43 -25 -25 0
-23 3 26 50 29 28 50 54 47 59 -7 11 22 36 43 36 9 0 16 7 16 16 0 20 25 50
35 44 11 -7 322 304 315 315 -6 10 24 35 44 35 9 0 16 7 16 16 0 20 25 50 35
44 5 -3 64 51 133 119 l124 125 -29 28 c-25 23 -31 26 -48 15 -11 -7 -20 -9
-20 -4 0 10 21 32 31 32 3 0 84 -71 180 -157z m-229 105 c-7 -7 -12 -8 -12 -2
0 14 12 26 19 19 2 -3 -1 -11 -7 -17z m-862 -19 c0 -6 -4 -7 -10 -4 -5 3 -10
11 -10 16 0 6 5 7 10 4 6 -3 10 -11 10 -16z m727 -107 c-65 -65 -114 -122
-110 -127 4 -4 3 -5 -3 -2 -10 6 -417 -393 -416 -409 0 -5 -3 -8 -7 -7 -4 1
-54 -45 -112 -103 -59 -59 -112 -104 -123 -104 -15 0 -10 10 25 47 50 54 327
331 379 380 73 67 295 305 295 315 0 6 6 13 14 16 9 3 11 0 6 -9 -5 -8 -4 -11
1 -6 5 5 9 13 9 19 0 11 148 118 155 111 2 -2 -49 -57 -113 -121z m-417 -106
c0 -1 -9 -2 -19 -2 -11 0 -19 5 -18 11 1 5 -6 9 -15 9 -10 -1 -16 3 -15 10 1
6 -7 11 -18 11 -11 0 -20 5 -20 12 0 7 -29 32 -63 56 l-64 44 -59 -58 c-32
-32 -59 -60 -59 -63 0 -6 -209 -216 -216 -216 -2 0 -49 -45 -104 -100 -56 -55
-99 -100 -96 -100 2 0 -43 -47 -100 -105 -57 -58 -108 -105 -113 -105 -5 0
-16 -11 -25 -25 -10 -16 -26 -25 -42 -25 -24 0 -21 5 35 61 33 33 60 65 58 72
-1 6 7 11 18 12 11 0 20 7 20 16 0 21 25 50 36 44 10 -7 350 335 344 345 -3 4
3 7 13 6 9 0 17 6 17 15 0 21 25 50 36 44 4 -3 54 41 110 97 97 99 100 103 80
117 -12 7 -21 17 -21 22 0 5 68 -39 150 -97 83 -58 150 -107 150 -108z m-1190
141 c-154 -143 -424 -379 -370 -324 91 93 404 375 410 370 3 -3 -15 -23 -40
-46z m1525 -55 c-6 -5 -22 -17 -36 -28 -14 -10 -26 -23 -27 -29 -1 -5 -10 -10
-20 -10 -9 0 -16 -5 -15 -10 1 -6 -7 -11 -18 -11 -23 0 -19 4 51 55 48 34 92
57 65 33z m-235 -105 c25 0 56 3 70 6 20 6 19 4 -5 -7 -16 -9 -46 -15 -65 -15
-19 0 -48 6 -65 15 -24 11 -25 13 -5 7 14 -3 45 -6 70 -6z m-1492 -596 c-18
-17 -36 -31 -40 -31 -4 0 9 15 30 34 20 19 39 33 40 31 2 -2 -11 -17 -30 -34z"/>
<path d="M924 3628 l-19 -23 23 19 c21 18 27 26 19 26 -2 0 -12 -10 -23 -22z"/>
<path d="M1789 3613 l-34 -38 38 34 c34 33 42 41 34 41 -2 0 -19 -17 -38 -37z"/>
<path d="M1554 3428 l-19 -23 23 19 c21 18 27 26 19 26 -2 0 -12 -10 -23 -22z"/>
<path d="M2645 3588 l-50 -53 53 50 c48 46 57 55 49 55 -1 0 -25 -24 -52 -52z"/>
<path d="M2235 3178 l-50 -53 53 50 c48 46 57 55 49 55 -1 0 -25 -24 -52 -52z"/>
<path d="M3515 3578 l-40 -43 43 40 c39 36 47 45 39 45 -2 0 -21 -19 -42 -42z"/>
<path d="M3549 3483 c-13 -16 -12 -17 4 -4 16 13 21 21 13 21 -2 0 -10 -8 -17
-17z"/>
<path d="M3095 3158 l-40 -43 43 40 c39 36 47 45 39 45 -2 0 -21 -19 -42 -42z"/>
<path d="M3139 3073 c-13 -16 -12 -17 4 -4 16 13 21 21 13 21 -2 0 -10 -8 -17
-17z"/>
<path d="M2675 2738 l-40 -43 43 40 c39 36 47 45 39 45 -2 0 -21 -19 -42 -42z"/>
<path d="M2729 2663 c-13 -16 -12 -17 4 -4 16 13 21 21 13 21 -2 0 -10 -8 -17
-17z"/>
<path d="M832 2657 l-192 -192 0 -68 c0 -37 2 -67 4 -67 13 0 456 454 453 464
-2 6 -11 10 -20 10 -9 -1 -15 3 -14 8 1 5 -7 16 -18 24 -19 13 -33 2 -213
-179z m178 160 c0 -2 -19 -21 -42 -42 l-43 -40 40 43 c36 39 45 47 45 39z"/>
<path d="M734 2608 l-19 -23 23 19 c21 18 27 26 19 26 -2 0 -12 -10 -23 -22z"/>
<path d="M1395 2338 l-50 -53 53 50 c28 27 52 51 52 52 0 8 -9 -1 -55 -49z"/>
<path d="M985 1928 l-50 -53 53 50 c48 46 57 55 49 55 -1 0 -25 -24 -52 -52z"/>
<path d="M4264 3047 c-49 -34 -144 -100 -212 -146 -67 -45 -120 -86 -117 -91
3 -4 -3 -7 -13 -6 -9 0 -16 -4 -15 -10 1 -7 -5 -11 -15 -10 -9 0 -17 -6 -17
-14 -1 -8 -7 -14 -14 -12 -7 1 -61 -33 -119 -76 -59 -44 -118 -86 -132 -93
-14 -8 -35 -24 -47 -36 -12 -13 -25 -23 -28 -23 -3 0 -34 -29 -69 -64 l-64
-64 165 -149 c91 -81 169 -149 172 -151 4 -1 146 136 315 305 l307 307 -1 198
c-1 109 -3 198 -4 198 -2 0 -43 -28 -92 -63z"/>
<path d="M4062 2369 l-292 -293 35 -36 c33 -32 37 -34 49 -17 7 9 16 17 18 17
13 0 138 131 134 139 -7 11 22 36 43 36 9 0 15 8 15 17 -1 10 2 16 6 13 8 -5
116 96 113 105 -1 3 12 15 28 25 16 11 29 23 29 28 0 7 37 47 44 47 2 0 20 16
40 35 37 34 37 35 34 105 l-3 71 -293 -292z"/>
<path d="M4333 2454 c-12 -17 -19 -34 -16 -38 4 -4 0 -4 -8 -1 -18 7 -44 -19
-35 -33 7 -11 -18 -35 -27 -26 -3 4 -27 -14 -52 -40 -26 -25 -43 -46 -38 -46
4 0 -7 -10 -24 -21 -18 -12 -33 -25 -33 -31 0 -12 -26 -38 -39 -38 -5 0 -18
-13 -28 -30 -9 -16 -21 -30 -25 -30 -5 0 -38 -30 -75 -66 l-66 -67 44 -40 c24
-22 99 -91 166 -153 67 -63 123 -114 126 -114 5 0 157 152 157 157 0 2 -6 1
-12 -3 -10 -6 -10 -4 0 8 9 12 12 88 10 329 l-3 314 -22 -31z"/>
<path d="M4019 2193 c-13 -16 -12 -17 4 -4 16 13 21 21 13 21 -2 0 -10 -8 -17
-17z"/>
<path d="M4290 1721 l-64 -58 39 -37 c40 -36 40 -36 57 -16 9 11 21 20 27 20
7 0 11 28 11 75 0 41 -1 75 -2 75 -2 -1 -32 -27 -68 -59z"/>
<path d="M4341 1586 c-9 -10 -8 -16 4 -26 13 -11 15 -9 13 14 -3 30 -2 30 -17
12z"/>
<path d="M1845 1908 l-40 -43 43 40 c39 36 47 45 39 45 -2 0 -21 -19 -42 -42z"/>
<path d="M1429 1493 l-34 -38 38 34 c34 33 42 41 34 41 -2 0 -19 -17 -38 -37z"/>
<path d="M2789 1843 c-13 -16 -12 -17 4 -4 16 13 21 21 13 21 -2 0 -10 -8 -17
-17z"/>
<path d="M2729 1783 c-13 -16 -12 -17 4 -4 9 7 17 15 17 17 0 8 -8 3 -21 -13z"/>
<path d="M2379 1433 c-13 -16 -12 -17 4 -4 9 7 17 15 17 17 0 8 -8 3 -21 -13z"/>
<path d="M2319 1373 c-13 -16 -12 -17 4 -4 9 7 17 15 17 17 0 8 -8 3 -21 -13z"/>
<path d="M3199 1373 c-13 -16 -12 -17 4 -4 16 13 21 21 13 21 -2 0 -10 -8 -17
-17z"/>
<path d="M1909 1843 c-13 -16 -12 -17 4 -4 9 7 17 15 17 17 0 8 -8 3 -21 -13z"/>
<path d="M1499 1433 c-13 -16 -12 -17 4 -4 9 7 17 15 17 17 0 8 -8 3 -21 -13z"/>
</g>
</svg>
